<svg width="960" height="720" viewBox="0 0 960 720" fill="none" xmlns="http://www.w3.org/2000/svg">
  <defs>
    <linearGradient id="panel-bg" x1="158" y1="126" x2="775" y2="606" gradientUnits="userSpaceOnUse">
      <stop stop-color="#F7FBFF" stop-opacity="0.98"/>
      <stop offset="1" stop-color="#E3F0FF" stop-opacity="0.99"/>
    </linearGradient>
    <linearGradient id="panel-stroke" x1="210" y1="142" x2="760" y2="590" gradientUnits="userSpaceOnUse">
      <stop stop-color="#7CC7FF" stop-opacity="0.92"/>
      <stop offset="0.5" stop-color="#0088FF" stop-opacity="0.44"/>
      <stop offset="1" stop-color="#7CC7FF" stop-opacity="0.14"/>
    </linearGradient>
    <linearGradient id="cover-bg" x1="202" y1="191" x2="392" y2="381" gradientUnits="userSpaceOnUse">
      <stop stop-color="#54B7FF"/>
      <stop offset="1" stop-color="#0088FF"/>
    </linearGradient>
    <linearGradient id="wave-line" x1="430" y1="390" x2="728" y2="390" gradientUnits="userSpaceOnUse">
      <stop stop-color="#7CC7FF"/>
      <stop offset="1" stop-color="#0088FF"/>
    </linearGradient>
    <linearGradient id="tag-bg" x1="0" y1="0" x2="1" y2="1">
      <stop stop-color="#F4F9FF" stop-opacity="0.98"/>
      <stop offset="1" stop-color="#E6F1FF" stop-opacity="0.98"/>
    </linearGradient>
    <linearGradient id="badge-bg" x1="0" y1="0" x2="1" y2="1">
      <stop stop-color="#F9FCFF" stop-opacity="0.98"/>
      <stop offset="1" stop-color="#E8F2FF" stop-opacity="0.98"/>
    </linearGradient>
    <filter id="blur-lg" x="-120" y="-120" width="1200" height="960" filterUnits="userSpaceOnUse" color-interpolation-filters="sRGB">
      <feGaussianBlur stdDeviation="54"/>
    </filter>
    <filter id="shadow-lg" x="92" y="70" width="748" height="598" filterUnits="userSpaceOnUse" color-interpolation-filters="sRGB">
      <feDropShadow dx="0" dy="26" stdDeviation="28" flood-color="#78A6CE" flood-opacity="0.18"/>
    </filter>
    <filter id="shadow-md" x="590" y="116" width="212" height="180" filterUnits="userSpaceOnUse" color-interpolation-filters="sRGB">
      <feDropShadow dx="0" dy="16" stdDeviation="18" flood-color="#78A6CE" flood-opacity="0.14"/>
    </filter>
    <filter id="shadow-sm" x="128" y="488" width="274" height="136" filterUnits="userSpaceOnUse" color-interpolation-filters="sRGB">
      <feDropShadow dx="0" dy="12" stdDeviation="14" flood-color="#78A6CE" flood-opacity="0.12"/>
    </filter>
  </defs>

  <rect width="960" height="720" rx="40" fill="transparent"/>

  <g opacity="0.82" filter="url(#blur-lg)">
    <circle cx="260" cy="176" r="118" fill="#7CC7FF" fill-opacity="0.28"/>
    <circle cx="722" cy="188" r="126" fill="#B8E2FF" fill-opacity="0.18"/>
    <circle cx="700" cy="572" r="156" fill="#0088FF" fill-opacity="0.14"/>
  </g>

  <g filter="url(#shadow-lg)">
    <rect x="146" y="124" width="640" height="490" rx="36" fill="url(#panel-bg)"/>
    <rect x="147.5" y="125.5" width="637" height="487" rx="34.5" stroke="url(#panel-stroke)" stroke-width="3"/>
    <rect x="176" y="154" width="580" height="430" rx="28" fill="white" fill-opacity="0.42" stroke="#0088FF" stroke-opacity="0.08" stroke-width="1.5"/>
  </g>

  <g>
    <rect x="194" y="188" width="206" height="206" rx="30" fill="url(#cover-bg)"/>
    <rect x="194" y="188" width="206" height="206" rx="30" fill="white" fill-opacity="0.06"/>
    <circle cx="272" cy="270" r="34" fill="white" fill-opacity="0.18"/>
    <path d="M304 240V320.5C304 335.135 292.135 347 277.5 347C262.865 347 251 335.135 251 320.5C251 305.865 262.865 294 277.5 294C283.041 294 288.177 295.701 292.42 298.605V255.571L350 245V302.5C350 317.135 338.135 329 323.5 329C308.865 329 297 317.135 297 302.5C297 287.865 308.865 276 323.5 276C329.041 276 334.177 277.701 338.42 280.605V259.5L304 265.5V240Z" fill="white"/>
    <rect x="218" y="210" width="54" height="16" rx="8" fill="white" fill-opacity="0.18"/>
    <rect x="218" y="234" width="92" height="12" rx="6" fill="white" fill-opacity="0.12"/>
  </g>

  <g opacity="0.96">
    <rect x="435" y="188" width="88" height="12" rx="6" fill="#1592FF"/>
    <rect x="435" y="214" width="162" height="14" rx="7" fill="#173452" fill-opacity="0.92"/>
    <rect x="435" y="242" width="212" height="14" rx="7" fill="#244565" fill-opacity="0.88"/>
    <rect x="435" y="286" width="118" height="10" rx="5" fill="#4A6786" fill-opacity="0.22"/>
    <rect x="435" y="306" width="196" height="10" rx="5" fill="#4A6786" fill-opacity="0.16"/>
  </g>

  <g>
    <rect x="435" y="336" width="296" height="108" rx="24" fill="white" fill-opacity="0.7" stroke="#0088FF" stroke-opacity="0.12" stroke-width="1.5"/>
    <path d="M454 388C473 388 473 362 492 362C511 362 511 414 530 414C549 414 549 346 568 346C587 346 587 424 606 424C625 424 625 370 644 370C663 370 663 404 682 404C701 404 701 388 720 388" stroke="url(#wave-line)" stroke-width="8" stroke-linecap="round"/>
    <circle cx="454" cy="388" r="7" fill="#7CC7FF"/>
    <circle cx="492" cy="362" r="7" fill="#42ABFF"/>
    <circle cx="530" cy="414" r="7" fill="#42ABFF"/>
    <circle cx="568" cy="346" r="7" fill="#7CC7FF"/>
    <circle cx="606" cy="424" r="7" fill="#42ABFF"/>
    <circle cx="644" cy="370" r="7" fill="#7CC7FF"/>
    <circle cx="682" cy="404" r="7" fill="#42ABFF"/>
    <circle cx="720" cy="388" r="7" fill="#0088FF"/>
  </g>

  <g>
    <rect x="196" y="434" width="548" height="1.5" fill="#1E3A5A" fill-opacity="0.08"/>
    <circle cx="234" cy="495" r="16" fill="#1E3A5A" fill-opacity="0.08"/>
    <path d="M230 486L244 495L230 504V486Z" fill="#173452"/>
    <circle cx="286" cy="495" r="12" fill="#1E3A5A" fill-opacity="0.06"/>
    <rect x="281" y="489" width="4" height="12" rx="2" fill="#173452"/>
    <rect x="287" y="489" width="4" height="12" rx="2" fill="#173452"/>
    <circle cx="334" cy="495" r="12" fill="#1E3A5A" fill-opacity="0.06"/>
    <rect x="330" y="489" width="3.5" height="12" rx="1.75" fill="#173452"/>
    <rect x="336.5" y="489" width="3.5" height="12" rx="1.75" fill="#173452"/>
    <rect x="438" y="489" width="226" height="12" rx="6" fill="#1E3A5A" fill-opacity="0.08"/>
    <rect x="438" y="489" width="148" height="12" rx="6" fill="#0088FF"/>
    <circle cx="588" cy="495" r="12" fill="#7CC7FF"/>
  </g>

  <g filter="url(#shadow-md)">
    <rect x="618" y="144" width="156" height="124" rx="24" fill="url(#badge-bg)" stroke="#7CC7FF" stroke-opacity="0.28" stroke-width="1.5"/>
    <rect x="642" y="170" width="18" height="56" rx="9" fill="#7CC7FF"/>
    <rect x="670" y="154" width="18" height="72" rx="9" fill="#1592FF"/>
    <rect x="698" y="182" width="18" height="44" rx="9" fill="#42ABFF"/>
    <rect x="726" y="164" width="18" height="62" rx="9" fill="#0088FF"/>
    <rect x="642" y="236" width="88" height="10" rx="5" fill="#1E3A5A" fill-opacity="0.12"/>
  </g>

  <g filter="url(#shadow-sm)">
    <rect x="148" y="506" width="234" height="90" rx="22" fill="url(#badge-bg)" stroke="#7CC7FF" stroke-opacity="0.22" stroke-width="1.5"/>
    <text x="178" y="546" fill="#173452" fill-opacity="0.94" font-size="22" font-weight="700" font-family="ui-sans-serif, system-ui, sans-serif">Cross-Platform</text>
    <g>
      <rect x="178" y="560" width="58" height="18" rx="9" fill="url(#tag-bg)" stroke="#7CC7FF" stroke-opacity="0.18"/>
      <text x="189" y="573" fill="#2E5478" font-size="10.5" font-weight="600" font-family="ui-sans-serif, system-ui, sans-serif">SPIGOT</text>
      <rect x="244" y="560" width="90" height="18" rx="9" fill="url(#tag-bg)" stroke="#7CC7FF" stroke-opacity="0.18"/>
      <text x="255" y="573" fill="#2E5478" font-size="10.5" font-weight="600" font-family="ui-sans-serif, system-ui, sans-serif">BUNGEECORD</text>
      <rect x="178" y="584" width="72" height="18" rx="9" fill="url(#tag-bg)" stroke="#7CC7FF" stroke-opacity="0.18"/>
      <text x="189" y="597" fill="#2E5478" font-size="10.5" font-weight="600" font-family="ui-sans-serif, system-ui, sans-serif">VELOCITY</text>
    </g>
  </g>

  <g opacity="0.94">
    <rect x="786" y="244" width="50" height="50" rx="12" fill="#F7FBFF" stroke="#7CC7FF" stroke-opacity="0.24" stroke-width="1.5"/>
    <path d="M802 274V252.5L824 248V272.5" stroke="#0088FF" stroke-width="4.5" stroke-linecap="round" stroke-linejoin="round"/>
    <circle cx="796.5" cy="275.5" r="7.5" fill="#42ABFF"/>
    <circle cx="818.5" cy="269.5" r="7.5" fill="#0088FF"/>
  </g>

  <g opacity="0.88">
    <rect x="126" y="132" width="26" height="26" rx="6" fill="#7CC7FF"/>
    <rect x="96" y="160" width="20" height="20" rx="5" fill="#42ABFF"/>
    <rect x="778" y="584" width="30" height="30" rx="7" fill="#1592FF"/>
    <rect x="816" y="550" width="18" height="18" rx="4" fill="#7CC7FF"/>
    <rect x="832" y="584" width="24" height="24" rx="6" fill="#0088FF"/>
    <rect x="742" y="100" width="16" height="16" rx="4" fill="#7CC7FF"/>
  </g>
</svg>
